<?xml version="1.0" standalone="no"?>
<!DOCTYPE svg PUBLIC "-//W3C//DTD SVG 20010904//EN"
 "http://www.w3.org/TR/2001/REC-SVG-20010904/DTD/svg10.dtd">
<svg version="1.0" xmlns="http://www.w3.org/2000/svg"
 width="508.000000pt" height="508.000000pt" viewBox="0 0 508.000000 508.000000"
 preserveAspectRatio="xMidYMid meet">
<metadata>
Created by potrace 1.11, written by Peter Selinger 2001-2013
</metadata>
<g transform="translate(0.000000,508.000000) scale(0.100000,-0.100000)"
fill="#000000" stroke="none">
<path d="M949 5076 c-2 -2 -26 -7 -54 -10 -191 -25 -421 -142 -570 -292 -94
-94 -215 -267 -215 -307 0 -9 -3 -17 -8 -19 -14 -6 -65 -172 -80 -261 -9 -56
-8 -3248 1 -3311 4 -27 10 -53 13 -57 3 -5 8 -21 10 -36 9 -51 68 -189 112
-263 99 -168 241 -304 412 -397 50 -27 151 -69 190 -79 85 -21 109 -27 135
-32 17 -3 750 -7 1630 -8 1350 -3 1610 -1 1666 11 36 8 77 16 90 19 87 17 250
94 344 162 107 77 270 251 293 314 3 8 9 17 12 20 13 9 78 165 99 235 11 39
24 95 28 125 10 71 10 3226 0 3302 -4 31 -20 97 -36 146 -58 176 -140 310
-264 433 -67 67 -186 159 -205 159 -6 0 -12 4 -14 8 -8 18 -230 110 -252 104
-4 -2 -14 3 -22 9 -8 6 -14 9 -14 6 0 -2 -28 1 -62 9 -51 11 -367 13 -1649 13
-872 1 -1588 -1 -1590 -3z"/>
</g>
</svg>
